<svg width="217" height="223" viewBox="0 0 217 223" fill="none" xmlns="http://www.w3.org/2000/svg">
<g clip-path="url(#clip0_101_46792)">
<path d="M215.887 55.1887C215.933 28.5517 194.379 6.9284 167.742 6.88226L48.2221 6.67463C21.5851 6.6285 -0.0381593 28.1826 -0.0842972 54.8196L-0.291918 174.34C-0.338056 200.977 21.216 222.6 47.853 222.646L167.373 222.854C194.01 222.9 215.634 201.346 215.68 174.709L215.887 55.1887Z" stroke="#5A636A" stroke-width="1.53793"/>
<path d="M103.703 90.884C102.68 91.7068 101.988 92.4143 101.642 93.0064C97.0283 100.858 90.1153 113.069 80.8877 129.64" stroke="#8C4934" stroke-width="1.53793"/>
<path d="M80.8883 129.64C76.8436 134.577 72.9987 139.106 69.3615 143.204C68.3926 144.296 67.0854 145.35 66.2626 146.442C64.3863 148.926 63.4328 151.771 63.3867 154.97C63.279 162.951 66.1626 170.08 75.421 170.134C98.4054 170.264 121.39 170.341 144.366 170.372C145.266 170.372 146.458 170.272 147.304 170.026C149.342 169.418 151.649 169.034 153.448 168.211C162.145 164.22 167.589 155.685 165.559 145.919C164.698 141.79 162.652 137.706 159.154 135.215C159.061 135.153 158.938 135.176 158.877 135.261C158.869 135.269 158.861 135.284 158.861 135.292L156.162 141.128C156.116 141.221 156.139 141.297 156.224 141.359C159.346 143.543 164.398 148.08 162.06 152.463C160.561 155.277 158.569 157.761 156.07 159.922C155.739 160.206 155.616 160.137 155.716 159.706C157.5 151.602 154.448 144.865 145.543 144.181" stroke="#939AA2" stroke-width="1.53793"/>
<path d="M145.543 144.189L129.387 116.621" stroke="#8C4934" stroke-width="1.53793"/>
<path d="M129.386 116.614C136.092 108.716 142.935 100.704 149.91 92.5834C150.948 91.3762 152.463 89.9382 153.278 88.8232C157.246 83.4251 157.577 75.7508 154.731 69.9451C152.517 65.4159 148.188 64.5239 143.466 64.5008C124.011 64.3932 104.556 64.2855 85.1016 64.1855C80.1956 64.1548 76.3892 64.1779 73.6824 64.2548C68.9687 64.3778 65.3007 66.2618 61.8096 69.5068C56.9728 73.9975 54.8505 79.3726 55.4426 85.6474C55.8886 90.415 58.2109 95.5209 62.1941 98.3353C62.2864 98.4045 62.3633 98.3814 62.4171 98.2738L65.0777 92.4681C65.1546 92.2912 65.1162 92.1528 64.9547 92.0529C61.8942 90.1151 57.0805 85.4936 59.1797 81.3335C60.4255 78.8574 62.0634 76.6582 64.0934 74.7204C64.2011 74.6204 64.2395 74.6435 64.2165 74.7819C63.7397 77.381 63.7166 79.9186 64.1473 82.3793C65.3007 88.9462 70.4605 90.661 76.3738 90.7225C85.4784 90.8225 94.5906 90.8763 103.711 90.884" stroke="#939AA2" stroke-width="1.53793"/>
<path d="M129.386 116.614L106.302 143.581C106.125 143.789 106.171 143.896 106.448 143.904L145.542 144.189" stroke="#F9AE92" stroke-width="1.53793"/>
<path d="M80.8877 129.64C80.9338 129.624 80.9723 129.624 81.0107 129.624C81.0722 129.632 81.1184 129.609 81.1568 129.563L113.984 91.2838C114.176 91.0608 114.122 90.9454 113.83 90.9454L103.703 90.8762" stroke="#F9AE92" stroke-width="1.53793"/>
<path d="M74.0669 112.446C74.09 112.407 74.0746 112.361 74.0362 112.338L66.7771 108.163C66.7387 108.14 66.6926 108.155 66.6695 108.193L63.8243 113.146C63.8012 113.184 63.8166 113.23 63.8551 113.253L71.1141 117.429C71.1526 117.452 71.1987 117.436 71.2218 117.398L74.0669 112.446Z" stroke="#939AA2" stroke-width="1.53793"/>
<path d="M157.384 120.389C157.438 120.297 157.407 120.174 157.315 120.12L150.202 116.045C150.11 115.991 149.987 116.021 149.933 116.114L147.195 120.889C147.142 120.981 147.172 121.104 147.265 121.158L154.378 125.234C154.47 125.288 154.593 125.257 154.647 125.164L157.384 120.389Z" stroke="#939AA2" stroke-width="1.53793"/>
<path d="M215.681 174.709C215.635 201.346 194.004 222.9 167.374 222.854L47.854 222.646C21.217 222.6 -0.33708 200.969 -0.290942 174.34L-0.0833207 54.8196C-0.0371827 28.1826 21.5938 6.6285 48.2231 6.67463L167.743 6.88226C194.38 6.9284 215.934 28.5594 215.888 55.1887L215.681 174.709Z" fill="#243545"/>
<path d="M103.811 90.7456H114.039C114.331 90.7456 114.169 91.0609 113.977 91.2839L81.15 129.563C81.1116 129.609 81.0577 129.632 81.0039 129.625C80.9654 129.617 80.927 129.625 80.8809 129.64C90.1084 113.069 97.0214 100.858 101.635 93.0064C101.989 92.4143 102.789 91.5684 103.811 90.7456Z" fill="#F15C25"/>
<path d="M129.387 116.614L145.543 144.181L106.449 143.896C106.172 143.896 106.126 143.789 106.303 143.573L129.387 116.614Z" fill="#F15C25"/>
<mask id="mask0_101_46792" style="mask-type:luminance" maskUnits="userSpaceOnUse" x="52" y="117" width="122" height="60">
<path d="M173.673 117.344H52.4453V176.016H173.673V117.344Z" fill="white"/>
</mask>
<g mask="url(#mask0_101_46792)">
<path d="M129.226 116.691L106.142 143.658C105.965 143.866 106.011 143.973 106.288 143.981L145.382 144.266C154.287 144.958 157.339 151.686 155.555 159.791C155.463 160.222 155.578 160.291 155.909 160.006C158.401 157.846 160.4 155.362 161.899 152.547C164.237 148.164 159.185 143.627 156.063 141.444C155.978 141.382 155.955 141.305 156.001 141.213L158.7 135.376C158.747 135.276 158.862 135.23 158.962 135.276C158.97 135.284 158.985 135.284 158.993 135.292C162.491 137.783 164.537 141.866 165.398 145.996C167.428 155.762 161.984 164.297 153.287 168.288C151.488 169.111 149.188 169.503 147.143 170.103C146.297 170.357 145.097 170.449 144.205 170.449C121.221 170.418 98.2367 170.341 75.26 170.211C66.0017 170.164 63.1104 163.028 63.2257 155.047C63.2718 151.848 64.2331 149.002 66.1016 146.519C66.9244 145.427 68.2317 144.373 69.2006 143.281C72.8378 139.175 76.821 134.684 80.8658 129.748C80.9657 129.655 80.9119 129.709 80.9965 129.64C80.9581 129.686 81.1042 129.517 80.9965 129.64L113.824 91.3608C114.016 91.1378 113.962 91.0224 113.67 91.0224L103.543 90.9532C94.4226 90.9455 85.3104 90.8994 76.2058 90.7917C70.2925 90.7225 65.1327 89.0154 63.9793 82.4485C63.5487 79.9878 63.5717 77.4502 64.0485 74.8511C64.0716 74.705 64.0331 74.6896 63.9255 74.7896C61.8954 76.7274 60.2575 78.9343 59.0118 81.4027C56.9125 85.5628 61.7185 90.1843 64.7867 92.1221C64.9482 92.222 64.9943 92.3681 64.9097 92.5373L62.2491 98.343C62.1953 98.4507 62.1261 98.4737 62.0261 98.4045C58.0429 95.5824 55.7206 90.4842 55.2746 85.7166C54.6825 79.4418 56.8048 74.0667 61.6416 69.576C65.1404 66.331 68.8084 64.447 73.5145 64.3239C76.2212 64.2547 80.0276 64.2317 84.9336 64.2547C104.388 64.3547 123.843 64.4624 143.298 64.57C148.027 64.5931 152.349 65.4851 154.563 70.0143C157.409 75.8277 157.078 83.4943 153.11 88.8924C152.287 90.0074 150.772 91.4454 149.742 92.6526C142.783 100.781 135.939 108.786 129.226 116.691Z" fill="white"/>
<path d="M80.9965 129.64C80.9119 129.709 80.9657 129.655 80.8658 129.748C76.821 134.684 72.8378 139.175 69.2006 143.281C68.2317 144.373 66.9244 145.427 66.1016 146.519C64.2331 149.002 63.2718 151.848 63.2257 155.047C63.1104 163.028 66.0017 170.164 75.26 170.211C98.2367 170.341 121.221 170.418 144.205 170.449C145.097 170.449 146.297 170.357 147.143 170.103C149.188 169.503 151.488 169.111 153.287 168.288C161.984 164.297 167.428 155.762 165.398 145.996C164.537 141.866 162.491 137.783 158.993 135.292C158.985 135.284 158.97 135.284 158.962 135.276C158.862 135.23 158.747 135.276 158.7 135.376L156.001 141.213C155.955 141.305 155.978 141.382 156.063 141.444C159.185 143.627 164.237 148.164 161.899 152.547C160.4 155.362 158.401 157.846 155.909 160.006C155.578 160.291 155.463 160.222 155.555 159.791C157.339 151.686 154.287 144.958 145.382 144.266L106.288 143.981C106.011 143.973 105.965 143.866 106.142 143.658L129.226 116.691C135.939 108.786 142.783 100.781 149.742 92.6526C150.772 91.4454 152.287 90.0074 153.11 88.8924C157.078 83.4943 157.409 75.8277 154.563 70.0143C152.349 65.4851 148.027 64.5931 143.298 64.57C123.843 64.4624 104.388 64.3547 84.9336 64.2547C80.0276 64.2317 76.2212 64.2547 73.5145 64.3239C68.8084 64.447 65.1404 66.331 61.6416 69.576C56.8048 74.0667 54.6825 79.4418 55.2746 85.7166C55.7206 90.4842 58.0429 95.5824 62.0261 98.4045C62.1261 98.4737 62.1953 98.4507 62.2491 98.343L64.9097 92.5373C64.9943 92.3681 64.9482 92.222 64.7867 92.1221C61.7185 90.1843 56.9125 85.5628 59.0118 81.4027C60.2575 78.9343 61.8954 76.7274 63.9255 74.7896C64.0331 74.6896 64.0716 74.705 64.0485 74.8511C63.5717 77.4502 63.5487 79.9878 63.9793 82.4485C65.1327 89.0154 70.2925 90.7225 76.2058 90.7918C85.3104 90.8994 94.4226 90.9455 103.543 90.9532L113.67 91.0224C113.962 91.0224 114.016 91.1378 113.824 91.3608L80.9965 129.64ZM80.9965 129.64C80.9581 129.686 81.1042 129.517 80.9965 129.64Z" stroke="white" stroke-width="0.768965" stroke-miterlimit="10"/>
<path d="M150.91 122.496L158.023 126.572C158.115 126.626 158.146 126.749 158.092 126.841L155.355 131.616C155.301 131.708 155.178 131.739 155.086 131.685L147.973 127.61C147.88 127.556 147.85 127.433 147.903 127.341L150.641 122.565C150.695 122.473 150.818 122.442 150.91 122.496Z" fill="white" stroke="white" stroke-width="0.768965" stroke-miterlimit="10"/>
</g>
<mask id="mask1_101_46792" style="mask-type:luminance" maskUnits="userSpaceOnUse" x="46" y="58" width="122" height="60">
<path d="M167.757 58.6875H46.5293V117.36H167.757V58.6875Z" fill="white"/>
</mask>
<g mask="url(#mask1_101_46792)">
<path d="M90.969 118.021L114.053 91.0532C114.23 90.8456 114.184 90.7379 113.907 90.7302L74.813 90.4457C65.9084 89.7536 62.8556 83.0252 64.6396 74.9203C64.7319 74.4897 64.6165 74.4205 64.2859 74.705C61.7944 76.8658 59.7951 79.3496 58.2956 82.164C55.958 86.5471 61.0101 91.084 64.1321 93.2678C64.2167 93.3293 64.2397 93.4062 64.1936 93.4985L61.4945 99.335C61.4484 99.4349 61.333 99.4811 61.2331 99.4349C61.2254 99.4272 61.21 99.4272 61.2023 99.4196C57.7035 96.9281 55.6581 92.8449 54.7968 88.7155C52.7668 78.9497 58.211 70.4142 66.908 66.4232C68.7074 65.6004 71.0066 65.2083 73.0521 64.6085C73.8979 64.3547 75.0975 64.2625 75.9895 64.2625C98.9739 64.2932 121.958 64.3701 144.935 64.5008C154.193 64.547 157.085 71.683 156.969 79.6648C156.923 82.8637 155.962 85.7089 154.093 88.1927C153.271 89.2846 151.963 90.3381 150.994 91.43C147.357 95.5363 143.689 99.7041 139.644 104.649C139.591 104.695 139.629 104.664 139.521 104.779C139.229 105.071 139.468 104.833 139.229 105.071L106.364 143.358C106.171 143.581 106.225 143.697 106.517 143.697L116.645 143.766C125.765 143.773 134.877 143.82 143.981 143.927C149.895 143.996 155.055 145.704 156.208 152.271C156.639 154.731 156.616 157.269 156.139 159.868C156.116 160.014 156.154 160.029 156.262 159.929C158.292 157.992 159.93 155.785 161.176 153.316C163.275 149.156 158.469 144.535 155.401 142.597C155.239 142.497 155.193 142.351 155.278 142.182L157.938 136.376C157.992 136.268 158.061 136.245 158.161 136.315C162.144 139.137 164.467 144.235 164.913 149.002C165.505 155.277 163.382 160.652 158.546 165.143C155.047 168.388 151.379 170.272 146.673 170.395C143.966 170.464 140.16 170.487 135.254 170.464C115.799 170.364 96.344 170.257 76.8892 170.149C72.1601 170.126 67.8385 169.234 65.6239 164.705C62.7787 158.891 63.1093 151.225 67.0772 145.827C67.9 144.712 69.4149 143.274 70.4453 142.066C77.4198 133.931 84.2559 125.918 90.969 118.021Z" fill="white" stroke="white" stroke-width="0.768965" stroke-miterlimit="10"/>
<path d="M69.2838 112.207L62.1709 108.132C62.0786 108.078 62.0479 107.955 62.1017 107.863L64.8392 103.087C64.893 102.995 65.0161 102.964 65.1083 103.018L72.2213 107.094C72.3135 107.148 72.3443 107.271 72.2905 107.363L69.553 112.138C69.4991 112.23 69.3838 112.269 69.2838 112.207Z" fill="white" stroke="white" stroke-width="0.768965" stroke-miterlimit="10"/>
</g>
<path fill-rule="evenodd" clip-rule="evenodd" d="M28.4219 152.732L147.173 161.798L112.439 165.912L105.172 164.882L105.288 166.881L28.4219 152.732Z" fill="white"/>
<path fill-rule="evenodd" clip-rule="evenodd" d="M118.414 170.941L54.5439 158.722L80.7042 170.787L84.7797 170.81L89.0859 170.826L118.414 170.941Z" fill="#F15C25"/>
</g>
<defs>
<clipPath id="clip0_101_46792">
<rect width="216.079" height="223" fill="white"/>
</clipPath>
</defs>
</svg>
